# xmcd CD database file
#
# Track frame offsets:
#	150
#	13868
#	25494
#	38030
#	51608
#	64087
#	75969
#	88807
#	102570
#	115901
#	129517
#	142854
#	155717
#	168581
#	181756
#	195666
#	209397
#	222502
#	234744
#	248486
#	260077
#	273314
#
# Disc length: 3813 seconds
#
# Revision: 0
# Processed by: cddbd v1.4PL0 Copyright (c) Steve Scherf et al.
# Submitted via: CDex 1.50Beta5
#
DISCID=430ee316
DTITLE=Vaughan,Sarah - Hall of fame - You´re not that kind
DYEAR=2002
DGENRE=Jazz
TTITLE0=You go to my heard
TTITLE1=I´m scared
TTITLE2=I could make You love Me
TTITLE3=It might as well be spring
TTITLE4=You´re not that kind
TTITLE5=My kinda love
TTITLE6=If You could see Me now
TTITLE7=I can make You love Me
TTITLE8=A hundred years from today
TTITLE9=You´re blase
TTITLE10=I´ve got a crush on you
TTITLE11=I´m through with love
TTITLE12=Everything I have is Yours
TTITLE13=Body and soul
TTITLE14=Time after time
TTITLE15=September song
TTITLE16=I cover the waterfront
TTITLE17=I don´t stand a ghost of a chance
TTITLE18=Tenderly
TTITLE19=Trouble is a man
TTITLE20=Love me or leave me
TTITLE21=I get a kick out of You
EXTD=YEAR: 2002
EXTT0=
EXTT1=
EXTT2=
EXTT3=
EXTT4=
EXTT5=
EXTT6=
EXTT7=
EXTT8=
EXTT9=
EXTT10=
EXTT11=
EXTT12=
EXTT13=
EXTT14=
EXTT15=
EXTT16=
EXTT17=
EXTT18=
EXTT19=
EXTT20=
EXTT21=
PLAYORDER=
